<svg width="30" height="30" viewBox="0 0 30 30" fill="none" xmlns="http://www.w3.org/2000/svg">
<g clip-path="url(#clip0)">
<g filter="url(#filter0_bd)">
<path d="M19.8867 15.1537L30.0005 21.5475V8.48997L19.8867 15.1537Z" fill="url(#paint0_linear)"/>
<path d="M29.5005 9.41818V20.6398L20.8087 15.145L29.5005 9.41818Z" stroke="url(#paint1_linear)" stroke-opacity="0.5"/>
</g>
<g filter="url(#filter1_bd)">
<path d="M0 8.48997V21.5475L10.1138 15.1537L0 8.48997Z" fill="url(#paint2_linear)"/>
<path d="M0.5 9.41818L9.19179 15.145L0.5 20.6398V9.41818Z" stroke="url(#paint3_linear)" stroke-opacity="0.5"/>
</g>
<g filter="url(#filter2_bd)">
<path d="M28.1254 4.6875H1.87539C0.939766 4.6875 0.197266 5.385 0.0566406 6.28313L15.0004 16.1287L29.9441 6.28313C29.8035 5.385 29.061 4.6875 28.1254 4.6875Z" fill="url(#paint4_linear)"/>
<path d="M1.87539 5.1875H28.1254C28.6919 5.1875 29.1722 5.54403 29.3708 6.0621L15.0004 15.53L0.629972 6.0621C0.828548 5.54403 1.30883 5.1875 1.87539 5.1875Z" stroke="url(#paint5_linear)" stroke-opacity="0.5"/>
</g>
<g filter="url(#filter3_bd)">
<path d="M18.1693 16.2863L15.5162 18.0338C15.3587 18.1369 15.1805 18.1875 15.0005 18.1875C14.8205 18.1875 14.6424 18.1369 14.4849 18.0338L11.8318 16.2844L0.0605469 23.73C0.204922 24.6207 0.943672 25.3125 1.87555 25.3125H28.1255C29.0574 25.3125 29.7962 24.6207 29.9405 23.73L18.1693 16.2863Z" fill="url(#paint6_linear)"/>
<path d="M15.7901 18.4521L15.7912 18.4514L18.1748 16.8814L29.3627 23.9562C29.1608 24.4638 28.6859 24.8125 28.1255 24.8125H1.87555C1.31516 24.8125 0.840261 24.4638 0.638425 23.9561L11.8262 16.8796L14.2097 18.4512L14.211 18.4521C14.4519 18.6098 14.7256 18.6875 15.0005 18.6875C15.2755 18.6875 15.5492 18.6098 15.7901 18.4521Z" stroke="url(#paint7_linear)" stroke-opacity="0.5"/>
</g>
</g>
<defs>
<filter id="filter0_bd" x="-120.113" y="-131.51" width="320.114" height="333.058" filterUnits="userSpaceOnUse" color-interpolation-filters="sRGB">
<feFlood flood-opacity="0" result="BackgroundImageFix"/>
<feGaussianBlur in="BackgroundImage" stdDeviation="70"/>
<feComposite in2="SourceAlpha" operator="in" result="effect1_backgroundBlur"/>
<feColorMatrix in="SourceAlpha" type="matrix" values="0 0 0 0 0 0 0 0 0 0 0 0 0 0 0 0 0 0 127 0" result="hardAlpha"/>
<feOffset dx="50" dy="60"/>
<feGaussianBlur stdDeviation="60"/>
<feColorMatrix type="matrix" values="0 0 0 0 0 0 0 0 0 0 0 0 0 0 0 0 0 0 0.03 0"/>
<feBlend mode="normal" in2="effect1_backgroundBlur" result="effect2_dropShadow"/>
<feBlend mode="normal" in="SourceGraphic" in2="effect2_dropShadow" result="shape"/>
</filter>
<filter id="filter1_bd" x="-140" y="-131.51" width="320.114" height="333.058" filterUnits="userSpaceOnUse" color-interpolation-filters="sRGB">
<feFlood flood-opacity="0" result="BackgroundImageFix"/>
<feGaussianBlur in="BackgroundImage" stdDeviation="70"/>
<feComposite in2="SourceAlpha" operator="in" result="effect1_backgroundBlur"/>
<feColorMatrix in="SourceAlpha" type="matrix" values="0 0 0 0 0 0 0 0 0 0 0 0 0 0 0 0 0 0 127 0" result="hardAlpha"/>
<feOffset dx="50" dy="60"/>
<feGaussianBlur stdDeviation="60"/>
<feColorMatrix type="matrix" values="0 0 0 0 0 0 0 0 0 0 0 0 0 0 0 0 0 0 0.03 0"/>
<feBlend mode="normal" in2="effect1_backgroundBlur" result="effect2_dropShadow"/>
<feBlend mode="normal" in="SourceGraphic" in2="effect2_dropShadow" result="shape"/>
</filter>
<filter id="filter2_bd" x="-139.943" y="-135.312" width="339.888" height="331.441" filterUnits="userSpaceOnUse" color-interpolation-filters="sRGB">
<feFlood flood-opacity="0" result="BackgroundImageFix"/>
<feGaussianBlur in="BackgroundImage" stdDeviation="70"/>
<feComposite in2="SourceAlpha" operator="in" result="effect1_backgroundBlur"/>
<feColorMatrix in="SourceAlpha" type="matrix" values="0 0 0 0 0 0 0 0 0 0 0 0 0 0 0 0 0 0 127 0" result="hardAlpha"/>
<feOffset dx="50" dy="60"/>
<feGaussianBlur stdDeviation="60"/>
<feColorMatrix type="matrix" values="0 0 0 0 0 0 0 0 0 0 0 0 0 0 0 0 0 0 0.03 0"/>
<feBlend mode="normal" in2="effect1_backgroundBlur" result="effect2_dropShadow"/>
<feBlend mode="normal" in="SourceGraphic" in2="effect2_dropShadow" result="shape"/>
</filter>
<filter id="filter3_bd" x="-139.939" y="-123.716" width="339.88" height="329.028" filterUnits="userSpaceOnUse" color-interpolation-filters="sRGB">
<feFlood flood-opacity="0" result="BackgroundImageFix"/>
<feGaussianBlur in="BackgroundImage" stdDeviation="70"/>
<feComposite in2="SourceAlpha" operator="in" result="effect1_backgroundBlur"/>
<feColorMatrix in="SourceAlpha" type="matrix" values="0 0 0 0 0 0 0 0 0 0 0 0 0 0 0 0 0 0 127 0" result="hardAlpha"/>
<feOffset dx="50" dy="60"/>
<feGaussianBlur stdDeviation="60"/>
<feColorMatrix type="matrix" values="0 0 0 0 0 0 0 0 0 0 0 0 0 0 0 0 0 0 0.03 0"/>
<feBlend mode="normal" in2="effect1_backgroundBlur" result="effect2_dropShadow"/>
<feBlend mode="normal" in="SourceGraphic" in2="effect2_dropShadow" result="shape"/>
</filter>
<linearGradient id="paint0_linear" x1="18.2572" y1="4.14164" x2="35.7004" y2="10.2963" gradientUnits="userSpaceOnUse">
<stop stop-color="white" stop-opacity="0.33"/>
<stop offset="1" stop-color="white" stop-opacity="0"/>
</linearGradient>
<linearGradient id="paint1_linear" x1="19.8867" y1="9.04134" x2="32.57" y2="12.7428" gradientUnits="userSpaceOnUse">
<stop stop-color="white"/>
<stop offset="1" stop-color="white" stop-opacity="0.23"/>
</linearGradient>
<linearGradient id="paint2_linear" x1="-1.62948" y1="4.14164" x2="15.8137" y2="10.2963" gradientUnits="userSpaceOnUse">
<stop stop-color="white" stop-opacity="0.33"/>
<stop offset="1" stop-color="white" stop-opacity="0"/>
</linearGradient>
<linearGradient id="paint3_linear" x1="5.71401e-09" y1="9.04134" x2="12.6833" y2="12.7428" gradientUnits="userSpaceOnUse">
<stop stop-color="white"/>
<stop offset="1" stop-color="white" stop-opacity="0.23"/>
</linearGradient>
<linearGradient id="paint4_linear" x1="-4.7587" y1="0.877411" x2="19.2326" y2="29.4266" gradientUnits="userSpaceOnUse">
<stop stop-color="white" stop-opacity="0.33"/>
<stop offset="1" stop-color="white" stop-opacity="0"/>
</linearGradient>
<linearGradient id="paint5_linear" x1="0.0566406" y1="5.17062" x2="20.7161" y2="25.5045" gradientUnits="userSpaceOnUse">
<stop stop-color="white"/>
<stop offset="1" stop-color="white" stop-opacity="0.23"/>
</linearGradient>
<linearGradient id="paint6_linear" x1="-4.75359" y1="13.2779" x2="12.9514" y2="39.9712" gradientUnits="userSpaceOnUse">
<stop stop-color="white" stop-opacity="0.33"/>
<stop offset="1" stop-color="white" stop-opacity="0"/>
</linearGradient>
<linearGradient id="paint7_linear" x1="0.0605469" y1="16.6656" x2="15.9754" y2="36.5115" gradientUnits="userSpaceOnUse">
<stop stop-color="white"/>
<stop offset="1" stop-color="white" stop-opacity="0.23"/>
</linearGradient>
<clipPath id="clip0">
<rect width="30" height="30" fill="white"/>
</clipPath>
</defs>
</svg>
