<svg width="30" height="30" viewBox="0 0 30 30" fill="none" xmlns="http://www.w3.org/2000/svg">
<g filter="url(#filter0_bd)">
<path d="M27.1143 12.3327C26.8811 12.2356 26.6113 12.2893 26.4331 12.4682L22.5745 16.3256C22.312 16.5887 21.98 16.7656 21.6175 16.8383L18.4925 17.4633C17.8699 17.589 17.24 17.3913 16.7994 16.9512C16.355 16.5062 16.1634 15.8727 16.2867 15.2575L16.8379 12.4999H6.87498C6.52951 12.4999 6.24996 12.2203 6.24996 11.8749C6.24996 11.5294 6.52951 11.2498 6.87498 11.2498H17.3668C17.3886 11.2258 17.4012 11.1955 17.4243 11.1723L19.8471 8.74982H6.87498C6.52951 8.74982 6.24996 8.47027 6.24996 8.1248C6.24996 7.77933 6.52951 7.49978 6.87498 7.49978H20.625C20.7581 7.49978 20.8746 7.55053 20.9759 7.62131L25.0317 3.56603C25.3735 3.22361 25.7873 2.95443 26.2622 2.76523C26.4783 2.67916 26.6284 2.47959 26.6516 2.24826C26.676 2.01634 26.5686 1.79111 26.3745 1.66291C25.9631 1.3925 25.4883 1.2497 25 1.2497H2.50002C1.12184 1.24988 0 2.37113 0 3.7499V28.1249C0 28.3776 0.152578 28.6058 0.385723 28.7023C0.462656 28.7346 0.544395 28.7499 0.624961 28.7499C0.787324 28.7499 0.947227 28.6865 1.06688 28.5668L7.13379 22.4999H25C26.3782 22.4999 27.5 21.3787 27.5 19.9999V12.91C27.5 12.6574 27.3474 12.4291 27.1143 12.3327ZM14.375 16.2499H6.87498C6.52951 16.2499 6.24996 15.9703 6.24996 15.6249C6.24996 15.2794 6.52951 14.9998 6.87498 14.9998H14.375C14.7204 14.9998 15 15.2794 15 15.6249C15 15.9704 14.7204 16.2499 14.375 16.2499Z" fill="url(#paint0_linear)"/>
<path d="M26.9231 12.7947L26.9221 12.7943C26.8763 12.7752 26.8223 12.7859 26.7873 12.8211L26.7866 12.8218L22.9285 16.6787C22.9284 16.6787 22.9284 16.6787 22.9284 16.6788C22.5957 17.0123 22.1745 17.2366 21.7157 17.3285L21.7155 17.3286L18.5915 17.9534C18.5912 17.9535 18.5909 17.9535 18.5906 17.9536C18.5906 17.9536 18.5906 17.9536 18.5905 17.9536C17.8014 18.1127 17.0029 17.8611 16.446 17.305L16.4455 17.3045C15.8834 16.7416 15.6403 15.9388 15.7964 15.1595C15.7964 15.1594 15.7964 15.1593 15.7964 15.1592L16.2281 12.9999H6.87498C6.25337 12.9999 5.74996 12.4965 5.74996 11.8749C5.74996 11.2533 6.25337 10.7498 6.87498 10.7498H17.1396L18.6399 9.24982H6.87498C6.25337 9.24982 5.74996 8.74641 5.74996 8.1248C5.74996 7.50319 6.25337 6.99978 6.87498 6.99978H20.625C20.7094 6.99978 20.7886 7.0101 20.8624 7.02765L24.6778 3.21281C25.0705 2.8194 25.5428 2.51365 26.0771 2.30074L26.0772 2.30072C26.1196 2.28384 26.1495 2.24435 26.1541 2.19836L26.1544 2.19587C26.1591 2.15124 26.1386 2.10653 26.0993 2.08034C25.7688 1.86329 25.3895 1.7497 25 1.7497H2.50008C2.50006 1.7497 2.50004 1.7497 2.50002 1.7497C1.39787 1.74988 0.5 2.64738 0.5 3.7499V28.1249C0.5 28.1755 0.53082 28.2212 0.57685 28.2403L0.579509 28.2414C0.591749 28.2465 0.607224 28.2499 0.624961 28.2499C0.657518 28.2499 0.689403 28.2372 0.713322 28.2133L6.78024 22.1464L6.92668 21.9999H7.13379H25C26.1021 21.9999 27 21.1025 27 19.9999V12.9102L26.9231 12.7947ZM26.9231 12.7947C26.9691 12.8137 27 12.8594 27 12.91L26.9231 12.7947ZM6.87498 16.7499H14.375C14.9966 16.7499 15.5 16.2466 15.5 15.6249C15.5 15.0033 14.9966 14.4998 14.375 14.4998H6.87498C6.25337 14.4998 5.74996 15.0033 5.74996 15.6249C5.74996 16.2465 6.25337 16.7499 6.87498 16.7499Z" stroke="url(#paint1_linear)" stroke-opacity="0.5"/>
</g>
<defs>
<filter id="filter0_bd" x="-140" y="-138.75" width="337.5" height="347.5" filterUnits="userSpaceOnUse" color-interpolation-filters="sRGB">
<feFlood flood-opacity="0" result="BackgroundImageFix"/>
<feGaussianBlur in="BackgroundImage" stdDeviation="70"/>
<feComposite in2="SourceAlpha" operator="in" result="effect1_backgroundBlur"/>
<feColorMatrix in="SourceAlpha" type="matrix" values="0 0 0 0 0 0 0 0 0 0 0 0 0 0 0 0 0 0 127 0" result="hardAlpha"/>
<feOffset dx="50" dy="60"/>
<feGaussianBlur stdDeviation="60"/>
<feColorMatrix type="matrix" values="0 0 0 0 0 0 0 0 0 0 0 0 0 0 0 0 0 0 0.03 0"/>
<feBlend mode="normal" in2="effect1_backgroundBlur" result="effect2_dropShadow"/>
<feBlend mode="normal" in="SourceGraphic" in2="effect2_dropShadow" result="shape"/>
</filter>
<linearGradient id="paint0_linear" x1="-4.43069" y1="-7.90824" x2="39.7379" y2="12.2121" gradientUnits="userSpaceOnUse">
<stop stop-color="white" stop-opacity="0.33"/>
<stop offset="1" stop-color="white" stop-opacity="0"/>
</linearGradient>
<linearGradient id="paint1_linear" x1="1.55368e-08" y1="2.41094" x2="32.7717" y2="14.7585" gradientUnits="userSpaceOnUse">
<stop stop-color="white"/>
<stop offset="1" stop-color="white" stop-opacity="0.23"/>
</linearGradient>
</defs>
</svg>
