<svg width="30" height="30" viewBox="0 0 30 30" fill="none" xmlns="http://www.w3.org/2000/svg">
<g filter="url(#filter0_bd)">
<path d="M15 30C23.2863 30 30 23.2863 30 15C30 6.71375 23.2863 0 15 0C6.71375 0 0 6.71375 0 15C0 23.2863 6.71375 30 15 30ZM6.86375 14.675L21.3263 9.09875C21.9975 8.85625 22.5837 9.2625 22.3662 10.2775L22.3675 10.2762L19.905 21.8775C19.7225 22.7 19.2337 22.9 18.55 22.5125L14.8 19.7487L12.9912 21.4913C12.7912 21.6913 12.6225 21.86 12.235 21.86L12.5013 18.0438L19.4513 11.765C19.7537 11.4987 19.3837 11.3488 18.985 11.6138L10.3963 17.0212L6.69375 15.8663C5.89 15.6112 5.8725 15.0625 6.86375 14.675Z" fill="url(#paint0_linear)"/>
<path d="M6.80979 14.535L6.80914 14.5353C6.55149 14.636 6.34964 14.7508 6.20701 14.876C6.06519 15.0005 5.97031 15.1462 5.9562 15.3072C5.94167 15.473 6.01563 15.6201 6.13902 15.7363C6.26028 15.8504 6.435 15.9415 6.64839 16.0092L6.64908 16.0094L10.3516 17.1644L10.4176 17.185L10.4762 17.1482L19.0649 11.7407L19.0649 11.7407L19.068 11.7387C19.1537 11.6817 19.2346 11.6493 19.301 11.6346C19.3333 11.6275 19.3599 11.6249 19.3808 11.6249C19.3732 11.633 19.3638 11.6421 19.3521 11.6524L19.3507 11.6537L12.4007 17.9324L12.3558 17.973L12.3516 18.0333L12.0854 21.8496L12.0742 22.01H12.235C12.453 22.01 12.6184 21.9619 12.7588 21.8803C12.8914 21.8032 12.9955 21.6991 13.0914 21.6032L13.0953 21.5993L13.0973 21.5973L14.8129 19.9446L18.461 22.6332L18.4682 22.6386L18.476 22.643C18.8355 22.8467 19.183 22.9187 19.4774 22.7854C19.7711 22.6523 19.956 22.3401 20.0514 21.91L20.0517 21.9086L22.5142 10.3074L22.6194 9.81195L22.5622 9.86919C22.561 9.54401 22.4641 9.2845 22.2842 9.10914C22.0275 8.8589 21.6466 8.82352 21.2753 8.95767L21.2753 8.95764L21.2723 8.95879L6.80979 14.535ZM29.85 15C29.85 23.2034 23.2034 29.85 15 29.85C6.79659 29.85 0.15 23.2034 0.15 15C0.15 6.79659 6.79659 0.15 15 0.15C23.2034 0.15 29.85 6.79659 29.85 15Z" stroke="url(#paint1_linear)" stroke-opacity="0.5" stroke-width="0.3"/>
</g>
<defs>
<filter id="filter0_bd" x="-140" y="-140" width="340" height="350" filterUnits="userSpaceOnUse" color-interpolation-filters="sRGB">
<feFlood flood-opacity="0" result="BackgroundImageFix"/>
<feGaussianBlur in="BackgroundImage" stdDeviation="70"/>
<feComposite in2="SourceAlpha" operator="in" result="effect1_backgroundBlur"/>
<feColorMatrix in="SourceAlpha" type="matrix" values="0 0 0 0 0 0 0 0 0 0 0 0 0 0 0 0 0 0 127 0" result="hardAlpha"/>
<feOffset dx="50" dy="60"/>
<feGaussianBlur stdDeviation="60"/>
<feColorMatrix type="matrix" values="0 0 0 0 0 0 0 0 0 0 0 0 0 0 0 0 0 0 0.03 0"/>
<feBlend mode="normal" in2="effect1_backgroundBlur" result="effect2_dropShadow"/>
<feBlend mode="normal" in="SourceGraphic" in2="effect2_dropShadow" result="shape"/>
</filter>
<linearGradient id="paint0_linear" x1="-4.83347" y1="-9.9904" x2="43.3502" y2="11.9591" gradientUnits="userSpaceOnUse">
<stop stop-color="white" stop-opacity="0.33"/>
<stop offset="1" stop-color="white" stop-opacity="0"/>
</linearGradient>
<linearGradient id="paint1_linear" x1="1.69492e-08" y1="1.26679" x2="35.7508" y2="14.7369" gradientUnits="userSpaceOnUse">
<stop stop-color="white"/>
<stop offset="1" stop-color="white" stop-opacity="0.23"/>
</linearGradient>
</defs>
</svg>
