<svg width="283" height="101" viewBox="0 0 283 101" fill="none" xmlns="http://www.w3.org/2000/svg">
<path d="M113.28 36.2C115.36 36.2 117.227 36.5733 118.88 37.32C120.533 38.04 121.933 39.0267 123.08 40.28C124.253 41.5067 125.147 42.9467 125.76 44.6C126.4 46.2267 126.72 47.9333 126.72 49.72C126.72 51.72 126.347 53.56 125.6 55.24C124.88 56.92 123.88 58.36 122.6 59.56C121.32 60.76 119.827 61.7067 118.12 62.4C116.44 63.0667 114.64 63.4 112.72 63.4C110.667 63.4 108.813 63.0267 107.16 62.28C105.533 61.5333 104.147 60.5467 103 59.32C101.88 58.0933 101.013 56.68 100.4 55.08C99.7867 53.48 99.48 51.8133 99.48 50.08C99.48 48.3733 99.7867 46.6933 100.4 45.04C101.013 43.36 101.907 41.8667 103.08 40.56C104.28 39.2533 105.733 38.2 107.44 37.4C109.147 36.6 111.093 36.2 113.28 36.2ZM113.24 62C115.027 61.92 116.587 61.52 117.92 60.8C119.28 60.0533 120.413 59.12 121.32 58C122.227 56.8533 122.893 55.6 123.32 54.24C123.773 52.88 124 51.5333 124 50.2C124 48.7333 123.733 47.2533 123.2 45.76C122.667 44.2667 121.907 42.92 120.92 41.72C119.933 40.4933 118.747 39.5067 117.36 38.76C116 37.9867 114.467 37.6 112.76 37.6C111.107 37.6 109.627 37.9733 108.32 38.72C107.013 39.44 105.893 40.3733 104.96 41.52C104.053 42.6667 103.36 43.9467 102.88 45.36C102.4 46.7733 102.16 48.16 102.16 49.52C102.16 50.9867 102.44 52.4667 103 53.96C103.56 55.4267 104.333 56.76 105.32 57.96C106.307 59.16 107.467 60.1333 108.8 60.88C110.16 61.6267 111.64 62 113.24 62ZM134.43 62.6H134.63V63H130.19V62.6H130.39C130.576 62.6 130.75 62.52 130.91 62.36C131.096 62.2 131.243 62.0133 131.35 61.8C131.456 61.5867 131.536 61.36 131.59 61.12C131.67 60.8533 131.71 60.6133 131.71 60.4V39.08C131.71 38.8933 131.683 38.68 131.63 38.44C131.603 38.2 131.536 37.9733 131.43 37.76C131.323 37.5467 131.176 37.3733 130.99 37.24C130.803 37.08 130.576 37 130.31 37H130.11V36.6H134.15L148.67 59.48V39.08C148.67 38.8933 148.63 38.68 148.55 38.44C148.496 38.2 148.403 37.9733 148.27 37.76C148.163 37.5467 148.03 37.3733 147.87 37.24C147.71 37.08 147.523 37 147.31 37H147.11V36.6H151.59V37H151.39C151.176 37 150.99 37.08 150.83 37.24C150.67 37.3733 150.523 37.5467 150.39 37.76C150.283 37.9733 150.203 38.2 150.15 38.44C150.096 38.68 150.07 38.8933 150.07 39.08V63H147.59L133.11 40.04V60.4C133.11 60.6133 133.136 60.8533 133.19 61.12C133.243 61.36 133.323 61.5867 133.43 61.8C133.563 62.0133 133.71 62.2 133.87 62.36C134.03 62.52 134.216 62.6 134.43 62.6ZM155.347 62.6H155.547C155.76 62.6 155.947 62.5333 156.107 62.4C156.267 62.24 156.4 62.0533 156.507 61.84C156.64 61.6267 156.734 61.4 156.787 61.16C156.867 60.92 156.907 60.6933 156.907 60.48V39.08C156.907 38.8933 156.867 38.68 156.787 38.44C156.734 38.2 156.64 37.9733 156.507 37.76C156.4 37.5467 156.267 37.3733 156.107 37.24C155.947 37.08 155.76 37 155.547 37H155.347V36.6H170.747V40.32H170.347C170.294 39.7067 170.054 39.1733 169.627 38.72C169.2 38.24 168.534 38 167.627 38H159.587V48.12H166.227C166.84 48.12 167.347 47.9333 167.747 47.56C168.174 47.1867 168.387 46.7467 168.387 46.24H168.787V51.24H168.387C168.387 50.76 168.187 50.3467 167.787 50C167.387 49.6533 166.867 49.48 166.227 49.48H159.587V61.6H168.347C168.854 61.6 169.294 61.48 169.667 61.24C170.04 61 170.347 60.72 170.587 60.4C170.854 60.0533 171.04 59.6933 171.147 59.32C171.28 58.92 171.347 58.5867 171.347 58.32H171.747V63H155.347V62.6ZM174.761 62.6H174.961C175.148 62.6 175.321 62.52 175.481 62.36C175.641 62.2 175.774 62.0133 175.881 61.8C176.014 61.5867 176.108 61.36 176.161 61.12C176.214 60.8533 176.241 60.6133 176.241 60.4V39.12C176.241 38.9333 176.214 38.72 176.161 38.48C176.108 38.24 176.014 38.0133 175.881 37.8C175.774 37.56 175.628 37.3733 175.441 37.24C175.281 37.08 175.094 37 174.881 37H174.681V36.6H181.241C183.721 36.6 185.654 37.1467 187.041 38.24C188.454 39.3333 189.161 40.7867 189.161 42.6C189.161 43.3733 189.028 44.0667 188.761 44.68C188.494 45.2933 188.148 45.84 187.721 46.32C187.321 46.8 186.881 47.2133 186.401 47.56C185.921 47.88 185.468 48.1467 185.041 48.36C186.161 48.5733 187.094 48.9333 187.841 49.44C188.588 49.9467 189.188 50.5333 189.641 51.2C190.121 51.84 190.454 52.5333 190.641 53.28C190.828 54.0267 190.921 54.76 190.921 55.48C190.921 56.8667 190.668 58.04 190.161 59C189.654 59.9333 188.974 60.7067 188.121 61.32C187.294 61.9067 186.334 62.3333 185.241 62.6C184.174 62.8667 183.068 63 181.921 63H174.761V62.6ZM188.201 55.72C187.988 53.6667 187.294 52.08 186.121 50.96C184.948 49.84 183.294 49.28 181.161 49.28H178.921V61.68H181.241C183.401 61.68 185.094 61.2 186.321 60.24C187.574 59.2533 188.201 57.8933 188.201 56.16V55.72ZM186.561 42.96C186.481 41.4133 185.934 40.1867 184.921 39.28C183.934 38.3733 182.601 37.92 180.921 37.92H178.921V48H181.001C182.121 48 183.028 47.8533 183.721 47.56C184.441 47.2667 185.014 46.8933 185.441 46.44C185.868 45.96 186.161 45.44 186.321 44.88C186.481 44.32 186.561 43.7733 186.561 43.24V42.96ZM194.331 62.6H194.531C194.745 62.6 194.931 62.5333 195.091 62.4C195.251 62.24 195.385 62.0533 195.491 61.84C195.625 61.6267 195.718 61.4 195.771 61.16C195.851 60.92 195.891 60.6933 195.891 60.48V39.08C195.891 38.8933 195.851 38.68 195.771 38.44C195.718 38.2 195.625 37.9733 195.491 37.76C195.385 37.5467 195.251 37.3733 195.091 37.24C194.931 37.08 194.745 37 194.531 37H194.331V36.6H200.091V37H199.891C199.678 37 199.491 37.08 199.331 37.24C199.171 37.3733 199.038 37.5467 198.931 37.76C198.825 37.9733 198.731 38.2 198.651 38.44C198.598 38.68 198.571 38.8933 198.571 39.08V61.52H207.331C207.838 61.52 208.278 61.4 208.651 61.16C209.025 60.92 209.331 60.6267 209.571 60.28C209.838 59.9067 210.025 59.52 210.131 59.12C210.265 58.6933 210.331 58.3067 210.331 57.96H210.731V63H194.331V62.6ZM228.205 62.6H228.405C229.045 62.6 229.365 62.3067 229.365 61.72C229.365 61.5067 229.325 61.28 229.245 61.04L225.645 51.32H218.645L215.165 60.88C215.085 61.0933 215.045 61.2933 215.045 61.48C215.045 61.8267 215.138 62.1067 215.325 62.32C215.512 62.5067 215.712 62.6 215.925 62.6H216.125V63H211.685V62.6H211.885C212.232 62.6 212.565 62.4 212.885 62C213.232 61.5733 213.512 61.08 213.725 60.52L222.885 36.12L231.845 60.28C232.032 60.8133 232.285 61.3333 232.605 61.84C232.952 62.3467 233.392 62.6 233.925 62.6H234.125V63H228.205V62.6ZM219.045 49.96H225.205L222.125 41.6L219.045 49.96ZM250.599 37.64C248.625 37.64 246.905 38 245.439 38.72C243.999 39.4133 242.799 40.3333 241.839 41.48C240.879 42.6 240.159 43.8667 239.679 45.28C239.225 46.6933 238.999 48.0933 238.999 49.48C238.999 51.0533 239.305 52.6 239.919 54.12C240.532 55.6133 241.372 56.9467 242.439 58.12C243.532 59.2667 244.799 60.2 246.239 60.92C247.679 61.6133 249.239 61.96 250.919 61.96C251.399 61.96 251.959 61.9067 252.599 61.8C253.265 61.6933 253.919 61.4933 254.559 61.2C255.199 60.88 255.785 60.44 256.319 59.88C256.879 59.32 257.305 58.5867 257.599 57.68H257.999V62.12C257.599 62.12 257.172 62.1733 256.719 62.28C256.292 62.3867 255.812 62.5067 255.279 62.64C254.585 62.8267 253.812 63 252.959 63.16C252.132 63.32 251.252 63.4 250.319 63.4C247.999 63.4 245.959 63 244.199 62.2C242.439 61.4 240.972 60.36 239.799 59.08C238.625 57.8 237.745 56.36 237.159 54.76C236.572 53.1333 236.279 51.4933 236.279 49.84C236.279 48.1867 236.572 46.5467 237.159 44.92C237.745 43.2933 238.639 41.84 239.839 40.56C241.039 39.2533 242.545 38.2 244.359 37.4C246.172 36.6 248.305 36.2 250.759 36.2C251.639 36.2 252.425 36.28 253.119 36.44C253.839 36.6 254.479 36.76 255.039 36.92C255.439 37.0533 255.799 37.16 256.119 37.24C256.465 37.2933 256.799 37.32 257.119 37.32V41.76H256.719C256.559 40.9333 256.265 40.2533 255.839 39.72C255.412 39.16 254.905 38.7333 254.319 38.44C253.759 38.1467 253.145 37.9467 252.479 37.84C251.839 37.7067 251.212 37.64 250.599 37.64ZM266.961 62.6H267.161V63H261.441V62.6H261.641C261.854 62.6 262.041 62.52 262.201 62.36C262.361 62.2 262.494 62.0133 262.601 61.8C262.734 61.5867 262.827 61.36 262.881 61.12C262.934 60.8533 262.961 60.6133 262.961 60.4V39.08C262.961 38.8933 262.934 38.68 262.881 38.44C262.827 38.2 262.734 37.9733 262.601 37.76C262.494 37.5467 262.361 37.3733 262.201 37.24C262.041 37.08 261.867 37 261.681 37H261.481V36.6H267.201V37H267.001C266.787 37 266.601 37.08 266.441 37.24C266.281 37.3733 266.134 37.5467 266.001 37.76C265.894 37.9733 265.801 38.2 265.721 38.44C265.667 38.68 265.641 38.8933 265.641 39.08V48.36L275.801 38.28C275.961 38.0933 276.041 37.88 276.041 37.64C276.041 37.2133 275.881 37 275.561 37H275.361V36.6H280.241V37H280.041C279.667 37 279.281 37.1333 278.881 37.4C278.481 37.6667 278.081 38 277.681 38.4L269.281 46.76L278.121 60.16C278.147 60.2133 278.267 60.3733 278.481 60.64C278.694 60.9067 278.947 61.1867 279.241 61.48C279.561 61.7733 279.907 62.04 280.281 62.28C280.681 62.4933 281.081 62.6 281.481 62.6V63H280.521C279.721 63 279.041 62.96 278.481 62.88C277.947 62.7733 277.481 62.6133 277.081 62.4C276.681 62.1867 276.321 61.92 276.001 61.6C275.707 61.28 275.401 60.88 275.081 60.4L267.321 48.68L265.641 50.4V60.4C265.641 60.6133 265.667 60.84 265.721 61.08C265.801 61.32 265.894 61.56 266.001 61.8C266.107 62.0133 266.241 62.2 266.401 62.36C266.561 62.52 266.747 62.6 266.961 62.6Z" fill="#F3F5F8"/>
<path d="M32 89C31.6648 84.3884 29.4699 80.0679 25.859 76.9121C22.2482 73.7562 17.4909 72.0006 12.5489 72H6C8.88018 76.3303 12.6692 80.0693 17.138 82.9913C21.6069 85.9132 26.6627 87.9573 32 89Z" fill="#F3F5F8"/>
<path d="M12.1731 62.4968C19.3833 62.4957 26.3054 65.3778 31.4479 70.5223C36.5905 75.6667 39.5418 82.6617 39.666 90C42.4698 89.978 45.2634 89.6536 48 89.0323C47.6328 79.6122 43.697 70.7026 37.0178 64.1715C30.3386 57.6405 21.4347 53.9952 12.1731 54H0C0.298421 56.8939 0.904824 59.7463 1.80856 62.5069L12.1731 62.4968Z" fill="#F3F5F8"/>
<path d="M12.2161 46C18.671 46.0034 25.006 44.2256 30.5469 40.8557C33.2828 39.1874 35.7899 37.1584 38.0032 34.8214C44.1037 28.39 47.6626 19.8968 48 10.9641C45.2633 10.3441 42.4697 10.0209 39.666 10C39.5418 17.3369 36.5905 24.3306 31.4479 29.474C26.3054 34.6175 19.3833 37.4992 12.1731 37.4981H1.80856C0.90483 40.257 0.298425 43.1077 0 46H12.2161Z" fill="#F3F5F8"/>
<path d="M12.5489 28C17.4903 27.9995 22.2472 26.2439 25.8579 23.0882C29.4687 19.9324 31.664 15.6119 32 11C26.6631 12.0429 21.6076 14.087 17.1388 17.0089C12.67 19.9308 8.88082 23.6698 6 28H12.5489Z" fill="#F3F5F8"/>
<path d="M46.539 38.9615C42.5043 43.6128 37.5536 47.3715 32 50C38.9491 53.2848 44.9288 58.331 49.3515 64.6427C53.7742 70.9545 56.4877 78.3147 57.2254 86C59.9954 84.6857 62.6044 83.0527 65 81.1336C62.8803 68.9988 56.6162 57.9881 47.2876 50C49.4156 48.1745 51.3971 46.1831 53.2138 44.0444C59.3181 36.8671 63.3891 28.1704 65 18.8664C62.6053 16.9461 59.9961 15.3129 57.2254 14C56.352 23.2408 52.6139 31.9722 46.539 38.9615Z" fill="#F3F5F8"/>
<path d="M71.5615 26C68.9915 35.053 64.3562 43.427 58 50.5C64.3575 57.5722 68.9929 65.9464 71.5615 75C77.0378 67.9411 80 59.3408 80 50.5C80 41.6592 77.0378 33.0589 71.5615 26Z" fill="#F3F5F8"/>
</svg>
